<svg width="205" height="85" viewBox="0 0 205 85" fill="none" xmlns="http://www.w3.org/2000/svg">
<g filter="url(#filter0_d)">
<text fill="white" xml:space="preserve" style="white-space: pre" font-family="SeoulHangang" font-size="36" letter-spacing="0em"><tspan x="7" y="30.8">Front </tspan></text>
<text stroke="#2F80ED" stroke-width="3" xml:space="preserve" style="white-space: pre" font-family="SeoulHangang" font-size="36" letter-spacing="0em"><tspan x="7" y="30.8">Front </tspan></text>
</g>
<g filter="url(#filter1_d)">
<text fill="white" xml:space="preserve" style="white-space: pre" font-family="Rye" font-size="36" letter-spacing="0em"><tspan x="104" y="72.5078">Back</tspan></text>
<text stroke="#333333" stroke-width="3" xml:space="preserve" style="white-space: pre" font-family="Rye" font-size="36" letter-spacing="0em"><tspan x="104" y="72.5078">Back</tspan></text>
</g>
<g filter="url(#filter2_i)">
<path d="M180.061 32.0607C180.646 31.4749 180.646 30.5251 180.061 29.9393L170.515 20.3934C169.929 19.8076 168.979 19.8076 168.393 20.3934C167.808 20.9792 167.808 21.9289 168.393 22.5147L176.879 31L168.393 39.4853C167.808 40.0711 167.808 41.0208 168.393 41.6066C168.979 42.1924 169.929 42.1924 170.515 41.6066L180.061 32.0607ZM104 32.5H179V29.5H104V32.5Z" fill="black"/>
<path d="M180.061 32.0607C180.646 31.4749 180.646 30.5251 180.061 29.9393L170.515 20.3934C169.929 19.8076 168.979 19.8076 168.393 20.3934C167.808 20.9792 167.808 21.9289 168.393 22.5147L176.879 31L168.393 39.4853C167.808 40.0711 167.808 41.0208 168.393 41.6066C168.979 42.1924 169.929 42.1924 170.515 41.6066L180.061 32.0607ZM104 32.5H179V29.5H104V32.5Z" fill="url(#paint0_linear)"/>
</g>
<g filter="url(#filter3_d)">
<path d="M10.9393 47.9393C10.3536 48.5251 10.3536 49.4749 10.9393 50.0607L20.4853 59.6066C21.0711 60.1924 22.0208 60.1924 22.6066 59.6066C23.1924 59.0208 23.1924 58.0711 22.6066 57.4853L14.1213 49L22.6066 40.5147C23.1924 39.9289 23.1924 38.9792 22.6066 38.3934C22.0208 37.8076 21.0711 37.8076 20.4853 38.3934L10.9393 47.9393ZM90 47.5L12 47.5V50.5L90 50.5V47.5Z" fill="black"/>
<path d="M10.9393 47.9393C10.3536 48.5251 10.3536 49.4749 10.9393 50.0607L20.4853 59.6066C21.0711 60.1924 22.0208 60.1924 22.6066 59.6066C23.1924 59.0208 23.1924 58.0711 22.6066 57.4853L14.1213 49L22.6066 40.5147C23.1924 39.9289 23.1924 38.9792 22.6066 38.3934C22.0208 37.8076 21.0711 37.8076 20.4853 38.3934L10.9393 47.9393ZM90 47.5L12 47.5V50.5L90 50.5V47.5Z" fill="url(#paint1_linear)"/>
</g>
<defs>
<filter id="filter0_d" x="0" y="0.960052" width="100.519" height="42.156" filterUnits="userSpaceOnUse" color-interpolation-filters="sRGB">
<feFlood flood-opacity="0" result="BackgroundImageFix"/>
<feColorMatrix in="SourceAlpha" type="matrix" values="0 0 0 0 0 0 0 0 0 0 0 0 0 0 0 0 0 0 127 0"/>
<feOffset dy="4"/>
<feGaussianBlur stdDeviation="2"/>
<feColorMatrix type="matrix" values="0 0 0 0 0 0 0 0 0 0 0 0 0 0 0 0 0 0 0.25 0"/>
<feBlend mode="normal" in2="BackgroundImageFix" result="effect1_dropShadow"/>
<feBlend mode="normal" in="SourceGraphic" in2="effect1_dropShadow" result="shape"/>
</filter>
<filter id="filter1_d" x="95.4276" y="41.875" width="109.053" height="42.6523" filterUnits="userSpaceOnUse" color-interpolation-filters="sRGB">
<feFlood flood-opacity="0" result="BackgroundImageFix"/>
<feColorMatrix in="SourceAlpha" type="matrix" values="0 0 0 0 0 0 0 0 0 0 0 0 0 0 0 0 0 0 127 0"/>
<feOffset dy="4"/>
<feGaussianBlur stdDeviation="2"/>
<feColorMatrix type="matrix" values="0 0 0 0 0 0 0 0 0 0 0 0 0 0 0 0 0 0 0.25 0"/>
<feBlend mode="normal" in2="BackgroundImageFix" result="effect1_dropShadow"/>
<feBlend mode="normal" in="SourceGraphic" in2="effect1_dropShadow" result="shape"/>
</filter>
<filter id="filter2_i" x="104" y="19.9541" width="76.5" height="26.0919" filterUnits="userSpaceOnUse" color-interpolation-filters="sRGB">
<feFlood flood-opacity="0" result="BackgroundImageFix"/>
<feBlend mode="normal" in="SourceGraphic" in2="BackgroundImageFix" result="shape"/>
<feColorMatrix in="SourceAlpha" type="matrix" values="0 0 0 0 0 0 0 0 0 0 0 0 0 0 0 0 0 0 127 0" result="hardAlpha"/>
<feOffset dy="4"/>
<feGaussianBlur stdDeviation="2"/>
<feComposite in2="hardAlpha" operator="arithmetic" k2="-1" k3="1"/>
<feColorMatrix type="matrix" values="0 0 0 0 0 0 0 0 0 0 0 0 0 0 0 0 0 0 0.25 0"/>
<feBlend mode="normal" in2="shape" result="effect1_innerShadow"/>
</filter>
<filter id="filter3_d" x="6.5" y="37.9541" width="87.5" height="30.0919" filterUnits="userSpaceOnUse" color-interpolation-filters="sRGB">
<feFlood flood-opacity="0" result="BackgroundImageFix"/>
<feColorMatrix in="SourceAlpha" type="matrix" values="0 0 0 0 0 0 0 0 0 0 0 0 0 0 0 0 0 0 127 0"/>
<feOffset dy="4"/>
<feGaussianBlur stdDeviation="2"/>
<feColorMatrix type="matrix" values="0 0 0 0 0 0 0 0 0 0 0 0 0 0 0 0 0 0 0.25 0"/>
<feBlend mode="normal" in2="BackgroundImageFix" result="effect1_dropShadow"/>
<feBlend mode="normal" in="SourceGraphic" in2="effect1_dropShadow" result="shape"/>
</filter>
<linearGradient id="paint0_linear" x1="141.5" y1="31" x2="141.5" y2="32" gradientUnits="userSpaceOnUse">
<stop/>
<stop offset="1" stop-color="white" stop-opacity="0"/>
</linearGradient>
<linearGradient id="paint1_linear" x1="51" y1="49" x2="51" y2="48" gradientUnits="userSpaceOnUse">
<stop/>
<stop offset="1" stop-color="white" stop-opacity="0"/>
</linearGradient>
</defs>
</svg>
